<svg id="svg" version="1.1" width="400" height="400" viewBox="0 0 400 400" xmlns="http://www.w3.org/2000/svg" xmlns:xlink="http://www.w3.org/1999/xlink" ><g id="svgg"><path id="path0" d="M189.400 29.020 C 89.588 35.504,16.887 124.379,30.313 223.500 C 40.917 301.790,104.645 362.939,183.500 370.488 C 294.221 381.087,385.216 285.596,369.498 175.300 C 356.983 87.473,277.935 23.268,189.400 29.020 M213.400 35.685 C 310.131 43.969,378.603 132.205,362.483 227.800 C 348.192 312.546,270.105 372.298,184.363 364.095 C 89.965 355.065,22.687 268.515,37.103 174.651 C 50.152 89.692,127.950 28.367,213.400 35.685 " stroke="none" fill="#040404" fill-rule="evenodd"></path><path id="path1" d="M193.500 35.393 C 99.327 39.248,27.742 120.622,35.909 214.533 C 44.016 307.759,128.971 375.741,221.800 363.287 C 311.340 351.275,374.549 269.423,363.497 179.800 C 353.027 94.894,278.868 31.899,193.500 35.393 " stroke="none" fill="#fbfbfb" fill-rule="evenodd"></path><path id="path2" d="M195.350 35.345 C 195.708 35.389,196.293 35.389,196.650 35.345 C 197.008 35.300,196.715 35.264,196.000 35.264 C 195.285 35.264,194.993 35.300,195.350 35.345 M203.350 35.345 C 203.708 35.389,204.293 35.389,204.650 35.345 C 205.007 35.300,204.715 35.264,204.000 35.264 C 203.285 35.264,202.993 35.300,203.350 35.345 M83.497 83.450 L 81.300 85.700 83.550 83.503 C 84.788 82.295,85.800 81.283,85.800 81.253 C 85.800 81.109,85.537 81.360,83.497 83.450 M316.500 83.600 C 317.706 84.810,318.738 85.800,318.793 85.800 C 318.848 85.800,317.906 84.810,316.700 83.600 C 315.494 82.390,314.462 81.400,314.407 81.400 C 314.352 81.400,315.294 82.390,316.500 83.600 M35.260 195.800 C 35.260 196.405,35.297 196.653,35.343 196.350 C 35.389 196.048,35.389 195.553,35.343 195.250 C 35.297 194.947,35.260 195.195,35.260 195.800 M364.662 195.900 C 364.663 196.560,364.700 196.806,364.745 196.446 C 364.789 196.087,364.789 195.547,364.743 195.246 C 364.697 194.946,364.661 195.240,364.662 195.900 M364.662 204.100 C 364.663 204.760,364.700 205.006,364.745 204.646 C 364.789 204.287,364.789 203.747,364.743 203.446 C 364.697 203.146,364.661 203.440,364.662 204.100 M35.260 204.200 C 35.260 204.805,35.297 205.053,35.343 204.750 C 35.389 204.447,35.389 203.953,35.343 203.650 C 35.297 203.347,35.260 203.595,35.260 204.200 M316.496 316.450 L 314.500 318.500 316.550 316.504 C 317.678 315.406,318.600 314.483,318.600 314.454 C 318.600 314.309,318.350 314.546,316.496 316.450 M83.500 316.600 C 84.596 317.700,85.537 318.600,85.592 318.600 C 85.647 318.600,84.796 317.700,83.700 316.600 C 82.604 315.500,81.663 314.600,81.608 314.600 C 81.553 314.600,82.404 315.500,83.500 316.600 M195.346 364.744 C 195.701 364.789,196.331 364.789,196.746 364.746 C 197.160 364.703,196.870 364.667,196.100 364.666 C 195.330 364.665,194.990 364.700,195.346 364.744 M203.146 364.744 C 203.501 364.789,204.131 364.789,204.546 364.746 C 204.960 364.703,204.670 364.667,203.900 364.666 C 203.130 364.665,202.790 364.700,203.146 364.744 " stroke="none" fill="#9f9f9f" fill-rule="evenodd"></path><path id="path3" d="" stroke="none" fill="#7c7c7c" fill-rule="evenodd"></path><path id="path4" d="M193.450 35.338 C 193.643 35.388,193.958 35.388,194.150 35.338 C 194.343 35.288,194.185 35.246,193.800 35.246 C 193.415 35.246,193.258 35.288,193.450 35.338 M205.850 35.338 C 206.043 35.388,206.357 35.388,206.550 35.338 C 206.743 35.288,206.585 35.246,206.200 35.246 C 205.815 35.246,205.657 35.288,205.850 35.338 M35.246 193.800 C 35.246 194.185,35.288 194.343,35.338 194.150 C 35.388 193.958,35.388 193.643,35.338 193.450 C 35.288 193.258,35.246 193.415,35.246 193.800 M364.646 193.800 C 364.646 194.185,364.688 194.343,364.738 194.150 C 364.788 193.958,364.788 193.643,364.738 193.450 C 364.688 193.258,364.646 193.415,364.646 193.800 M35.246 206.200 C 35.246 206.585,35.288 206.743,35.338 206.550 C 35.388 206.357,35.388 206.043,35.338 205.850 C 35.288 205.657,35.246 205.815,35.246 206.200 M364.646 206.200 C 364.646 206.585,364.688 206.743,364.738 206.550 C 364.788 206.357,364.788 206.043,364.738 205.850 C 364.688 205.657,364.646 205.815,364.646 206.200 M193.450 364.738 C 193.643 364.788,193.958 364.788,194.150 364.738 C 194.343 364.688,194.185 364.646,193.800 364.646 C 193.415 364.646,193.258 364.688,193.450 364.738 M205.850 364.738 C 206.043 364.788,206.357 364.788,206.550 364.738 C 206.743 364.688,206.585 364.646,206.200 364.646 C 205.815 364.646,205.657 364.688,205.850 364.738 " stroke="none" fill="#747474" fill-rule="evenodd"></path></g></svg>